<svg id="cara-logo_1" data-name="cara-logo_1" xmlns="http://www.w3.org/2000/svg" width="155" height="55" viewBox="0 0 155 55">
	<title>CARA</title>
	<path fill="#0086cb" d="M7.58,54,7,53.44a1.57,1.57,0,0,1-1.29.64,1.51,1.51,0,0,1-1.29-.64,2.43,2.43,0,0,1-.37-1.5,2.39,2.39,0,0,1,.37-1.5,1.51,1.51,0,0,1,1.29-.64A1.53,1.53,0,0,1,7,50.43l.55-.53a2.21,2.21,0,0,0-1.84-.83c-1.41,0-2.47,1-2.47,2.87S4.33,54.8,5.74,54.8A2.18,2.18,0,0,0,7.58,54Zm6.12-2A3,3,0,0,0,13,49.71a2.33,2.33,0,0,0-3.21,0,3,3,0,0,0-.68,2.23,3,3,0,0,0,.68,2.23,2.36,2.36,0,0,0,3.21,0,3,3,0,0,0,.68-2.23Zm-.82,0a2.45,2.45,0,0,1-.44,1.73,1.45,1.45,0,0,1-1,.41,1.42,1.42,0,0,1-1-.41A2.45,2.45,0,0,1,10,51.94a2.44,2.44,0,0,1,.45-1.73,1.42,1.42,0,0,1,1-.41,1.45,1.45,0,0,1,1,.41,2.43,2.43,0,0,1,.44,1.73Zm7.42,2.79V51.15a2,2,0,0,0-.58-1.55,2,2,0,0,0-1.43-.53,2,2,0,0,0-1.57.69v-.62H15.9v5.59h.82V51.29a1.32,1.32,0,0,1,1.39-1.49,1.3,1.3,0,0,1,1.37,1.49v3.44Zm6.84,0V51.15a2.08,2.08,0,0,0-.57-1.55,2,2,0,0,0-1.44-.53,2,2,0,0,0-1.57.69v-.62h-.81v5.59h.81V51.29a1.39,1.39,0,1,1,2.77,0v3.44Zm6.73-2.58v-.37c0-1.66-.85-2.71-2.29-2.71s-2.3,1.06-2.3,2.87c0,2,1,2.86,2.45,2.86a2.55,2.55,0,0,0,2-.86l-.56-.49a1.83,1.83,0,0,1-1.46.64c-1.07,0-1.65-.71-1.65-1.94Zm-.81-.61h-3a2.38,2.38,0,0,1,.17-.93,1.44,1.44,0,0,1,2.62,0,2.57,2.57,0,0,1,.17.93Zm7,2.43-.56-.53a1.56,1.56,0,0,1-1.28.64,1.53,1.53,0,0,1-1.3-.64,2.43,2.43,0,0,1-.36-1.5,2.39,2.39,0,0,1,.36-1.5,1.63,1.63,0,0,1,2.58,0l.56-.53a2.23,2.23,0,0,0-1.84-.83c-1.41,0-2.48,1-2.48,2.87s1.07,2.86,2.48,2.86A2.2,2.2,0,0,0,40.08,54Zm4.16.76V54h-.43c-.52,0-.76-.31-.76-.82V49.8h1.19v-.62H43.05V47.43h-.82v1.75h-.71v.62h.71v3.43a1.37,1.37,0,0,0,1.43,1.5Zm5.52-8.49h-1l-1,1.74h.75l1.22-1.74Zm.85,5.91v-.37c0-1.66-.86-2.71-2.3-2.71S46,50.13,46,51.94c0,2,1,2.86,2.45,2.86a2.55,2.55,0,0,0,2-.86L50,53.45a1.86,1.86,0,0,1-1.47.64c-1.07,0-1.65-.71-1.65-1.94Zm-.82-.61h-3a2.38,2.38,0,0,1,.17-.93,1.44,1.44,0,0,1,2.62,0,2.57,2.57,0,0,1,.17.93ZM58.48,48l-1-1.74h-1L57.73,48Zm1.59,6.75V50.94c0-1.22-.74-1.87-2.24-1.87a2.17,2.17,0,0,0-2,.83l.55.51a1.48,1.48,0,0,1,1.41-.63c1,0,1.43.41,1.43,1.23v.53H57.57c-1.25,0-1.93.64-1.93,1.61a1.62,1.62,0,0,0,.42,1.14,2,2,0,0,0,1.58.51,2,2,0,0,0,1.61-.6v.53Zm-.82-2a1.3,1.3,0,0,1-.28,1,1.63,1.63,0,0,1-1.25.38c-.89,0-1.28-.31-1.28-1s.4-1,1.25-1h1.56v.61Zm14.55,2V51.15a2.06,2.06,0,0,0-.6-1.55,2,2,0,0,0-1.44-.53,2.12,2.12,0,0,0-1.84.94,1.85,1.85,0,0,0-1.72-.94,2,2,0,0,0-1.58.69v-.62H65.8v5.59h.82V51.29A1.32,1.32,0,0,1,68,49.8a1.3,1.3,0,0,1,1.37,1.49v3.44h.82V51.2a1.39,1.39,0,1,1,2.77.09v3.44Zm6.44,0V50.94c0-1.22-.74-1.87-2.24-1.87a2.19,2.19,0,0,0-2,.83l.56.51A1.47,1.47,0,0,1,78,49.78c1,0,1.43.41,1.43,1.23v.53H77.74c-1.25,0-1.94.64-1.94,1.61a1.62,1.62,0,0,0,.42,1.14,2,2,0,0,0,1.58.51,2,2,0,0,0,1.62-.6v.53Zm-.82-2a1.25,1.25,0,0,1-.29,1,1.63,1.63,0,0,1-1.25.38c-.88,0-1.28-.31-1.28-1s.41-1,1.25-1h1.57v.61ZM90,53.1c0-1.05-.67-1.42-1.65-1.51l-.9-.08c-.7-.06-1-.34-1-.82s.43-.92,1.25-.92a2.37,2.37,0,0,1,1.49.44l.53-.53a3.17,3.17,0,0,0-2-.61c-1.19,0-2.06.62-2.06,1.64s.58,1.41,1.67,1.5l.92.08c.65.06.93.33.93.82,0,.66-.56,1-1.48,1A2.26,2.26,0,0,1,86,53.45l-.55.55a3.08,3.08,0,0,0,2.3.8c1.35,0,2.27-.62,2.27-1.7Zm6,1.63V50.94c0-1.22-.74-1.87-2.24-1.87a2.19,2.19,0,0,0-2,.83l.56.51a1.47,1.47,0,0,1,1.41-.63c1,0,1.43.41,1.43,1.23v.53H93.55c-1.25,0-1.94.64-1.94,1.61A1.62,1.62,0,0,0,92,54.29a2,2,0,0,0,1.58.51,2,2,0,0,0,1.62-.6v.53Zm-.82-2a1.25,1.25,0,0,1-.29,1,1.63,1.63,0,0,1-1.25.38c-.88,0-1.28-.31-1.28-1s.41-1,1.25-1h1.57v.61Zm7.66,2V51.15a2,2,0,0,0-.58-1.55,2,2,0,0,0-1.43-.53,2,2,0,0,0-1.57.69v-.62h-.82v5.59h.82V51.29a1.31,1.31,0,0,1,1.39-1.49,1.3,1.3,0,0,1,1.37,1.49v3.44Zm4.59,0V54h-.43c-.52,0-.76-.31-.76-.82V49.8h1.19v-.62h-1.19V47.43h-.82v1.75h-.71v.62h.71v3.43a1.37,1.37,0,0,0,1.43,1.5ZM113,46.24h-1L111,48h.75L113,46.24Zm.84,5.91v-.37c0-1.66-.86-2.71-2.3-2.71s-2.3,1.06-2.3,2.87c0,2,1,2.86,2.45,2.86a2.54,2.54,0,0,0,2-.86l-.55-.49a1.86,1.86,0,0,1-1.47.64c-1.07,0-1.65-.71-1.65-1.94Zm-.82-.61h-3a2.57,2.57,0,0,1,.17-.93,1.44,1.44,0,0,1,2.62,0,2.38,2.38,0,0,1,.17.93Z">
	</path>
	<path fill="#0086cb" d="M32.85,6.57A18.13,18.13,0,0,0,26.62,2,19.45,19.45,0,0,0,18.56.34a19.48,19.48,0,0,0-7.18,1.33,17.33,17.33,0,0,0-9.91,9.74A20.24,20.24,0,0,0,0,19.32,20,20,0,0,0,1.47,27.2a17.53,17.53,0,0,0,4,5.89,17.18,17.18,0,0,0,5.89,3.67A20,20,0,0,0,18.49,38a19.1,19.1,0,0,0,14.15-6L27,26.75a9.47,9.47,0,0,1-3.71,2.66,11.34,11.34,0,0,1-4,.77,9.62,9.62,0,0,1-4.13-.88A9.86,9.86,0,0,1,11.91,27a10.5,10.5,0,0,1-2.07-3.47,12.38,12.38,0,0,1-.73-4.31,12.38,12.38,0,0,1,.73-4.31,10.21,10.21,0,0,1,5.33-5.81,9.65,9.65,0,0,1,4.16-.88,11.2,11.2,0,0,1,3.89.74,10.82,10.82,0,0,1,4,2.77l5.67-5.12Zm17.9,24.21a8.53,8.53,0,0,1-2.38-.67,4.58,4.58,0,0,1-1.79-1.44,4.24,4.24,0,0,1-.7-2.55,4.62,4.62,0,0,1,.67-2.53,5.3,5.3,0,0,1,1.75-1.71,7.7,7.7,0,0,1,2.56-.95,17,17,0,0,1,3.08-.28,23.28,23.28,0,0,1,4.66.49,21.25,21.25,0,0,1,3.82,1.12v5.33A21.63,21.63,0,0,1,58.07,30a12.67,12.67,0,0,1-4.83,1,19.79,19.79,0,0,1-2.49-.17ZM40.21,35.19Q44,38,50.3,38a21.82,21.82,0,0,0,6.44-1,22.88,22.88,0,0,0,6.52-3.4l.42,3.15h8.19V15a14.38,14.38,0,0,0-1.43-6.59,13.32,13.32,0,0,0-3.89-4.62,17,17,0,0,0-5.71-2.7A26.62,26.62,0,0,0,53.94.2,28.81,28.81,0,0,0,38.81,4.33l4.34,6a18.86,18.86,0,0,1,4.9-2,23.91,23.91,0,0,1,6-.77,15.29,15.29,0,0,1,3.12.32,6.42,6.42,0,0,1,2.66,1.22,6.36,6.36,0,0,1,1.85,2.49,10.33,10.33,0,0,1,.71,4.17,18.92,18.92,0,0,0-4.73-1.47,28.59,28.59,0,0,0-5.15-.49,23.43,23.43,0,0,0-6,.77A15.18,15.18,0,0,0,41.4,17a12,12,0,0,0-5,10.2,9.36,9.36,0,0,0,3.78,8ZM100.94.27a11.5,11.5,0,0,0-6.27,1.85,17.17,17.17,0,0,0-5,5L89,1.53H80.77v35.3h9.46V20.23a12.83,12.83,0,0,1,.87-5A8.24,8.24,0,0,1,93.45,12a9,9,0,0,1,3.43-1.72,15.64,15.64,0,0,1,4.06-.53V.27ZM118,30.78a8.53,8.53,0,0,1-2.38-.67,4.58,4.58,0,0,1-1.79-1.44,4.24,4.24,0,0,1-.7-2.55,4.62,4.62,0,0,1,.67-2.53,5.3,5.3,0,0,1,1.75-1.71,7.7,7.7,0,0,1,2.56-.95,17,17,0,0,1,3.08-.28,23.28,23.28,0,0,1,4.66.49,21.25,21.25,0,0,1,3.82,1.12v5.33A21.63,21.63,0,0,1,125.32,30a12.67,12.67,0,0,1-4.83,1,19.79,19.79,0,0,1-2.49-.17Zm-10.54,4.41Q111.24,38,117.55,38a21.82,21.82,0,0,0,6.44-1,22.88,22.88,0,0,0,6.52-3.4l.42,3.15h8.19V15a14.38,14.38,0,0,0-1.43-6.59,13.32,13.32,0,0,0-3.89-4.62,17,17,0,0,0-5.71-2.7,26.62,26.62,0,0,0-6.9-.87,28.81,28.81,0,0,0-15.13,4.13l4.34,6a18.8,18.8,0,0,1,4.91-2,23.77,23.77,0,0,1,6-.77,15.29,15.29,0,0,1,3.12.32,6.42,6.42,0,0,1,2.66,1.22A6.36,6.36,0,0,1,129,11.65a10.33,10.33,0,0,1,.71,4.17,18.92,18.92,0,0,0-4.73-1.47,28.59,28.59,0,0,0-5.15-.49,23.43,23.43,0,0,0-6,.77A15.18,15.18,0,0,0,108.65,17a12,12,0,0,0-5,10.2,9.36,9.36,0,0,0,3.78,8Z">
	</path>
	<polygon fill="#eb6b0a" points="144.92 28.65 144.92 36.5 155 36.5 155 26.42 144.92 28.65 144.92 28.65"></polygon>
</svg>
